<svg version="1" xmlns="http://www.w3.org/2000/svg" width="346.667" height="346.667" viewBox="0 0 260.000000 260.000000"><path d="M110 15.6c-12.1 1.7-19.8 4.1-30.9 9.5C56.3 36.2 43.2 56.5 43.6 80c.5 33.8 20.3 52.2 69.8 64.6 5.5 1.4 11.5 2.9 13.1 3.4 1.7.5 7.7 2.4 13.5 4.1 29.2 8.7 38.2 18.3 33.8 35.6-2.3 9.4-14.3 17.8-28.3 19.9-6.1 1-23.4 1-29.5.1-13.9-2-25.9-10.3-31.4-21.8-3.9-8.4-5.3-8.9-25.5-8.9-15.8 0-17.3.2-19.1 2-2.1 2.1-2.3 2.8-2 7.5 1.8 26.1 24.9 48.2 58.5 56.1 11.5 2.6 14.1 2.9 34.5 2.9 20.1-.1 27.3-1 41-5.5 25.6-8.3 41.9-24.1 47.5-45.9 1-3.8 1.6-10.2 1.6-16-.1-19.7-6.3-32.9-20.6-43.8-8.7-6.6-23.3-12.6-44.7-18.3-39.5-10.6-51-14.8-58.2-21.1-11-9.6-9.9-27.9 2.1-35.8 8-5.3 13.4-6.6 27.8-6.6 13.2 0 16.9.8 25.4 5.1 5.7 2.9 11.5 9.4 13.6 15.4 3 8.2 4.5 8.7 25.9 8.6 20.2-.1 21.6-.6 21.6-8.1 0-13-12.2-32.1-27-42.2-9.5-6.4-26.9-13.7-35.5-14.8-1.1-.1-4.1-.6-6.7-1-7.4-1.1-26.6-1.1-34.8.1z"/></svg>