<svg width="128" height="128" viewBox="0 0 128 128" fill="none" xmlns="http://www.w3.org/2000/svg">
<rect width="128" height="128" rx="24" fill="url(#paint0_linear_104_4)"/>
<path d="M83.4783 46.4091C81.45 46.4091 79.8321 44.8379 79.0031 42.9868C78.1708 41.1283 76.8284 39.5872 74.9756 38.3636C72.0849 36.4545 68.5393 35.5 64.3387 35.5C61.2674 35.5 58.5799 36 56.2764 37C53.9955 38 52.2114 39.375 50.9241 41.125C49.6594 42.875 49.0271 44.8636 49.0271 47.0909C49.0271 48.9545 49.4675 50.5568 50.3482 51.8977C51.2516 53.2159 52.4033 54.3182 53.8035 55.2045C55.2037 56.0682 56.6716 56.7841 58.2073 57.3523C59.743 57.8977 61.1545 58.3409 62.4417 58.6818L69.4878 60.5909C71.2945 61.0682 73.3044 61.7273 75.5176 62.5682C77.7534 63.4091 79.8875 64.5568 81.92 66.0114C83.9751 67.4432 85.6689 69.2841 87.0014 71.5341C88.3338 73.7841 89 76.5455 89 79.8182C89 83.5909 88.0176 87 86.0528 90.0455C84.1107 93.0909 81.2651 95.5114 77.5163 97.3068C73.79 99.1023 69.262 100 63.9322 100C58.9639 100 54.6617 99.1932 51.0257 97.5795C47.4124 95.9659 44.5668 93.7159 42.4892 90.8295C41.3028 89.1633 40.4137 87.3418 39.8219 85.3651C39.0973 82.9449 41.1482 80.7727 43.6746 80.7727C45.9355 80.7727 47.708 82.5673 48.6087 84.641C49.0382 85.6299 49.6068 86.5223 50.3144 87.3182C51.8726 89.0227 53.8374 90.2955 56.2087 91.1364C58.6025 91.9545 61.177 92.3636 63.9322 92.3636C67.1391 92.3636 70.0185 91.8409 72.5705 90.7955C75.1224 89.7273 77.1436 88.25 78.6341 86.3636C80.1247 84.4545 80.8699 82.2273 80.8699 79.6818C80.8699 77.3636 80.2263 75.4773 78.939 74.0227C77.6518 72.5682 75.958 71.3864 73.8577 70.4773C71.7574 69.5682 69.4878 68.7727 67.0488 68.0909L58.5122 65.6364C53.0921 64.0682 48.8013 61.8295 45.6396 58.9205C42.4779 56.0114 40.897 52.2045 40.897 47.5C40.897 43.5909 41.9471 40.1818 44.0474 37.2727C46.1703 34.3409 49.0158 32.0682 52.584 30.4545C56.1748 28.8182 60.1834 28 64.6097 28C69.0813 28 73.056 28.8068 76.5339 30.4205C80.0117 32.0114 82.7669 34.1932 84.7994 36.9659C86.0266 38.6215 86.9075 40.4109 87.4421 42.3339C88.0473 44.5107 86.1806 46.4091 83.9212 46.4091H83.4783Z" fill="white"/>
<path fill-rule="evenodd" clip-rule="evenodd" d="M58.5122 65.6364C53.0921 64.0682 48.8013 61.8295 45.6396 58.9205C42.4779 56.0114 40.897 52.2045 40.897 47.5C40.897 43.5909 41.9471 40.1818 44.0474 37.2727C46.1703 34.3409 49.0158 32.0682 52.584 30.4545C56.1748 28.8182 60.1834 28 64.6097 28C69.0813 28 73.056 28.8068 76.5339 30.4205C80.0117 32.0114 82.7669 34.1932 84.7995 36.9659C86.0266 38.6215 86.9075 40.4109 87.4421 42.3339C88.0473 44.5107 86.1806 46.4091 83.9212 46.4091H83.4783C81.45 46.4091 79.8321 44.8379 79.0031 42.9868C78.1709 41.1283 76.8284 39.5872 74.9756 38.3636C72.0849 36.4545 68.5393 35.5 64.3387 35.5C61.2674 35.5 58.5799 36 56.2764 37C53.9955 38 52.2114 39.375 50.9241 41.125C49.6594 42.875 49.0271 44.8636 49.0271 47.0909C49.0271 48.9545 49.4675 50.5568 50.3482 51.8977C51.2516 53.2159 52.4033 54.3182 53.8035 55.2045C55.2037 56.0682 56.6716 56.7841 58.2073 57.3523C59.743 57.8977 61.1545 58.3409 62.4417 58.6818L69.4878 60.5909C71.2945 61.0682 73.3044 61.7273 75.5176 62.5682C77.7534 63.4091 79.8875 64.5568 81.9201 66.0114C83.9752 67.4432 85.6689 69.2841 87.0014 71.5341C88.3338 73.7841 89 76.5455 89 79.8182C89 83.5909 88.0176 87 86.0528 90.0455C84.1107 93.0909 81.2651 95.5114 77.5163 97.3068C73.79 99.1023 69.262 100 63.9322 100C58.9639 100 54.6617 99.1932 51.0257 97.5795C47.4124 95.9659 44.5668 93.7159 42.4892 90.8295C41.3028 89.1633 40.4137 87.3418 39.8219 85.3651C39.0973 82.9449 41.1482 80.7727 43.6746 80.7727C45.9355 80.7727 47.708 82.5673 48.6087 84.641C49.0382 85.6299 49.6068 86.5223 50.3144 87.3182C51.8726 89.0227 53.8374 90.2955 56.2087 91.1364C58.6025 91.9545 61.177 92.3636 63.9322 92.3636C67.1391 92.3636 70.0185 91.8409 72.5705 90.7955C75.1224 89.7273 77.1436 88.25 78.6341 86.3636C80.1247 84.4546 80.8699 82.2273 80.8699 79.6818C80.8699 77.3636 80.2263 75.4773 78.939 74.0227C77.6518 72.5682 75.958 71.3864 73.8577 70.4773C71.7575 69.5682 69.4878 68.7727 67.0488 68.0909L58.5122 65.6364ZM77.0613 85.1282C78.2603 83.5905 78.8699 81.8035 78.8699 79.6818C78.8699 77.7525 78.3446 76.3689 77.4413 75.3482C76.3799 74.1488 74.9421 73.126 73.0633 72.3127C71.0544 71.4432 68.8711 70.677 66.5103 70.0171L66.5032 70.0151L57.9563 67.5576C52.3285 65.9293 47.7347 63.566 44.2854 60.3922C40.6704 57.0661 38.897 52.7046 38.897 47.5C38.897 43.2102 40.0573 39.3827 42.4259 36.102L42.4275 36.0998C44.7706 32.8637 47.8998 30.3783 51.7573 28.6334C55.6378 26.8655 59.9333 26 64.6097 26C69.322 26 73.59 26.8508 77.3707 28.6039C81.1194 30.3196 84.1544 32.7046 86.4094 35.7792C87.776 37.6241 88.7671 39.633 89.369 41.7982C90.4246 45.5946 87.1215 48.4091 83.9212 48.4091H83.4783C80.3382 48.4091 78.1718 46.0238 77.1778 43.8042C76.5148 42.3236 75.4389 41.0664 73.8734 40.0325C71.3736 38.3815 68.2316 37.5 64.3387 37.5C61.4834 37.5 59.0783 37.9646 57.0763 38.8331C55.0738 39.7116 53.5898 40.8791 52.5402 42.3033C51.5334 43.6993 51.0271 45.273 51.0271 47.0909C51.0271 48.6204 51.3823 49.8217 52.0094 50.7838C52.75 51.8595 53.6945 52.7668 54.8636 53.5085C56.145 54.298 57.4863 54.9521 58.8893 55.4721C60.3792 56.001 61.7332 56.4252 62.9537 56.7485L62.9648 56.7514L70.0048 58.6589C71.8915 59.1576 73.9661 59.8393 76.2245 60.6973C78.6261 61.6009 80.9097 62.8302 83.0736 64.3775C85.3692 65.9791 87.2528 68.0336 88.7222 70.515C90.2781 73.1422 91 76.2762 91 79.8182C91 83.9571 89.9165 87.744 87.7363 91.1252C85.5654 94.5273 82.4144 97.1777 78.3844 99.1086C74.3209 101.067 69.4789 102 63.9322 102C58.7519 102 54.1611 101.159 50.2144 99.4076L50.2102 99.4057C46.3115 97.6647 43.1726 95.2025 40.866 91.998L40.8599 91.9896C39.5454 90.1433 38.56 88.1234 37.9059 85.9387C36.7008 81.9135 40.1651 78.7727 43.6746 78.7727C47.0806 78.7727 49.3922 81.4245 50.4431 83.8443C50.7875 84.6371 51.2391 85.3461 51.8 85.9791C53.1139 87.4129 54.7859 88.5081 56.8664 89.2476C59.0313 89.9861 61.3818 90.3636 63.9322 90.3636C66.9178 90.3636 69.5314 89.8779 71.8052 88.9476C74.0865 87.9916 75.8123 86.7072 77.0613 85.1282Z" fill="white"/>
<defs>
<linearGradient id="paint0_linear_104_4" x1="46.5" y1="1.04052e-06" x2="87.5" y2="125" gradientUnits="userSpaceOnUse">
<stop stop-color="#6366F1"/>
<stop offset="1" stop-color="#4F46E5"/>
</linearGradient>
</defs>
</svg>
