<svg width="128" height="128" viewBox="0 0 128 128" fill="none" xmlns="http://www.w3.org/2000/svg">
<rect width="128" height="128" rx="24" fill="url(#paint0_linear_104_4)"/>
<path d="M78.8699 79.6818C78.8699 81.8035 78.2603 83.5905 77.0613 85.1282C75.8123 86.7072 74.0865 87.9916 71.8052 88.9476C69.5314 89.8779 66.9178 90.3636 63.9322 90.3636C61.3818 90.3636 59.0313 89.9861 56.8664 89.2476C54.7859 88.5081 53.1139 87.4129 51.8 85.9791C51.2391 85.3461 50.7875 84.6371 50.4431 83.8443C49.3922 81.4245 47.0806 78.7727 43.6746 78.7727C40.1651 78.7727 36.7008 81.9135 37.9059 85.9387C38.56 88.1234 39.5454 90.1433 40.8599 91.9896L40.866 91.998C43.1726 95.2025 46.3115 97.6647 50.2102 99.4057L50.2144 99.4076C54.1611 101.159 58.7519 102 63.9322 102C69.4789 102 74.3209 101.067 78.3844 99.1086C82.4144 97.1777 85.5654 94.5273 87.7363 91.1252C89.9165 87.744 91 83.9571 91 79.8182C91 76.2762 90.2781 73.1422 88.7222 70.515C87.2527 68.0336 85.3692 65.9791 83.0736 64.3775C80.9097 62.8302 78.6261 61.6009 76.2245 60.6973C73.9661 59.8393 71.8915 59.1576 70.0048 58.6589L62.9648 56.7514L62.9537 56.7485C61.7332 56.4252 60.3792 56.001 58.8893 55.4721C57.4863 54.9521 56.145 54.298 54.8636 53.5085C53.6945 52.7668 52.7499 51.8595 52.0094 50.7838C51.3823 49.8217 51.0271 48.6204 51.0271 47.0909C51.0271 45.273 51.5334 43.6993 52.5402 42.3033C53.5898 40.8791 55.0738 39.7116 57.0763 38.8331C59.0783 37.9646 61.4834 37.5 64.3387 37.5C68.2316 37.5 71.3736 38.3815 73.8734 40.0325C75.4389 41.0664 76.5148 42.3236 77.1778 43.8042C78.1718 46.0238 80.3382 48.4091 83.4783 48.4091H83.9212C87.1215 48.4091 90.4245 45.5946 89.369 41.7982C88.7671 39.633 87.776 37.6241 86.4094 35.7792C84.1544 32.7046 81.1194 30.3196 77.3707 28.6039C73.5899 26.8508 69.322 26 64.6098 26C59.9333 26 55.6378 26.8655 51.7573 28.6334C47.8998 30.3783 44.7706 32.8637 42.4275 36.0998L42.4259 36.102C40.0573 39.3827 38.897 43.2102 38.897 47.5C38.897 52.7046 40.6704 57.0661 44.2854 60.3922C47.7347 63.566 52.3285 65.9293 57.9563 67.5576L66.5032 70.0151L66.5103 70.0171C68.8711 70.677 71.0544 71.4432 73.0633 72.3127C74.9421 73.126 76.3799 74.1488 77.4413 75.3482C78.3446 76.3689 78.8699 77.7525 78.8699 79.6818Z" fill="white"/>
<defs>
<linearGradient id="paint0_linear_104_4" x1="46.5" y1="1.04052e-06" x2="87.5" y2="125" gradientUnits="userSpaceOnUse">
<stop stop-color="#6366F1"/>
<stop offset="1" stop-color="#4F46E5"/>
</linearGradient>
</defs>
</svg>
