<svg width="512" height="768" viewBox="0 0 512 768" fill="none" xmlns="http://www.w3.org/2000/svg">
<rect width="512" height="768" fill="#F1F5F9"/>
<path fill-rule="evenodd" clip-rule="evenodd" d="M153.721 488.504C153.721 483.26 158.502 479.008 164.399 479.008H347.268C353.166 479.008 357.947 483.26 357.947 488.504C357.947 493.749 353.166 498 347.268 498H164.399C158.502 498 153.721 493.749 153.721 488.504Z" fill="#CBD5E1"/>
<path fill-rule="evenodd" clip-rule="evenodd" d="M131.696 279C116.952 279 105 289.629 105 302.74V434.496C105 447.607 116.952 458.236 131.696 458.236H379.304C394.048 458.236 406 447.607 406 434.496V302.74C406 289.629 394.048 279 379.304 279H131.696ZM242.111 324.634C234.571 320.158 224.466 324.964 224.466 333.025V404.102C224.466 412.164 234.571 416.969 242.111 412.494L301.977 376.955C308.705 372.961 308.705 364.167 301.977 360.172L242.111 324.634Z" fill="#CBD5E1"/>
</svg>
