<svg width="512" height="512" viewBox="0 0 512 512" fill="none" xmlns="http://www.w3.org/2000/svg">
<path fill-rule="evenodd" clip-rule="evenodd" d="M103 429C103 420.163 110.163 413 119 413H393C401.837 413 409 420.163 409 429C409 437.837 401.837 445 393 445H119C110.163 445 103 437.837 103 429Z" fill="currentColor"/>
<path fill-rule="evenodd" clip-rule="evenodd" d="M70 76C47.9086 76 30 93.9086 30 116V338C30 360.091 47.9086 378 70 378H441C463.091 378 481 360.091 481 338V116C481 93.9086 463.091 76 441 76H70ZM235.439 152.89C224.142 145.348 209 153.446 209 167.029V286.789C209 300.371 224.142 308.469 235.439 300.928L325.138 241.048C335.219 234.317 335.219 219.5 325.138 212.77L235.439 152.89Z" fill="currentColor"/>
</svg>
