<svg width="1097" height="548" viewBox="0 0 1097 548" fill="none" xmlns="http://www.w3.org/2000/svg">
<g clip-path="url(#clip0_17_2)">
<path d="M69.2 0.199951H1027.6C1065.4 0.199951 1096.1 30.7999 1096.1 68.7V479.4C1096.1 517.2 1065.5 547.9 1027.6 547.9H69.2C31.4 547.9 0.700012 517.3 0.700012 479.4V68.5999C0.700012 30.7999 31.4 0.199951 69.2 0.199951Z" fill="#F5C518"/>
<path d="M137.6 428H223.2V119.9H137.6V428Z" fill="black"/>
<path d="M405.8 119.9L386.6 263.8L374.7 185.5C371.2 160.4 367.9 138.6 364.8 119.9H257.4V428H330L330.3 224.6L360.8 428H412.5L441.5 220.1L441.7 428H514.1V119.9H405.8Z" fill="black"/>
<path d="M548.4 428V119.9H682C712.2 119.9 736.7 144.2 736.7 174.3V373.6C736.7 403.6 712.3 428 682 428H548.4ZM648.2 175.4C644.8 173.6 638.3 172.7 628.9 172.7V374.8C641.4 374.8 649 372.6 651.9 367.9C654.8 363.3 656.3 350.8 656.3 330.3V210.8C656.3 196.9 655.8 188 654.8 184C653.8 180.1 651.6 177.2 648.2 175.4Z" fill="black"/>
<path d="M898 197.1H903.5C934.2 197.1 959.1 221.2 959.1 250.8V374.3C959.1 404 934.2 428 903.5 428H898C879.2 428 862.6 419 852.5 405.2L847.6 424H770.9V119.9H852.8V218.8C863.3 205.7 879.6 197.1 898 197.1ZM880.5 347.3V274.3C880.5 262.2 879.7 254.3 878.1 250.7C876.5 247.1 870 244.7 865.5 244.7C861 244.7 854 246.6 852.7 249.8V274.3V349.6V373.3C854.2 376.8 860.9 378.8 865.5 378.8C870.1 378.8 876.9 376.9 878.3 373.3C879.8 369.8 880.5 361.1 880.5 347.3Z" fill="black"/>
</g>
<defs>
<clipPath id="clip0_17_2">
<rect width="1097" height="548" fill="white"/>
</clipPath>
</defs>
</svg>
