<svg width="96" height="96" viewBox="0 0 96 96" fill="none" xmlns="http://www.w3.org/2000/svg">
<path fill-rule="evenodd" clip-rule="evenodd" d="M48 84C67.8823 84 84 67.8823 84 48C84 28.1177 67.8823 12 48 12C28.1177 12 12 28.1177 12 48C12 67.8823 28.1177 84 48 84ZM42 69.5C42 71.7091 43.7908 73.5 46 73.5H49.7613C51.9705 73.5 53.7613 71.7091 53.7613 69.5V44.7727C53.7613 42.5636 51.9705 40.7727 49.7613 40.7727H46C43.7908 40.7727 42 42.5636 42 44.7727V69.5ZM43.8753 32.1619C45.0117 33.2131 46.3753 33.7386 47.9663 33.7386C49.5714 33.7386 50.9351 33.2131 52.0573 32.1619C53.1936 31.1108 53.7618 29.8466 53.7618 28.3693C53.7618 26.892 53.1936 25.6278 52.0573 24.5767C50.9351 23.5256 49.5714 23 47.9663 23C46.3753 23 45.0117 23.5256 43.8753 24.5767C42.7389 25.6278 42.1707 26.892 42.1707 28.3693C42.1707 29.8466 42.7389 31.1108 43.8753 32.1619Z" fill="currentColor"/>
</svg>
