<svg width="96" height="96" viewBox="0 0 96 96" fill="none" xmlns="http://www.w3.org/2000/svg">
<path fill-rule="evenodd" clip-rule="evenodd" d="M73.7574 25.7574C76.1005 28.1005 76.1005 31.8995 73.7574 34.2426L34.7574 73.2426C32.4142 75.5858 28.6152 75.5858 26.2721 73.2426C23.9289 70.8995 23.9289 67.1005 26.2721 64.7574L65.2721 25.7574C67.6152 23.4142 71.4142 23.4142 73.7574 25.7574Z" fill="currentColor"/>
<path fill-rule="evenodd" clip-rule="evenodd" d="M26.2426 25.7574C23.8995 28.1005 23.8995 31.8995 26.2426 34.2426L65.2426 73.2426C67.5858 75.5858 71.3848 75.5858 73.7279 73.2426C76.0711 70.8995 76.0711 67.1005 73.7279 64.7574L34.7279 25.7574C32.3848 23.4142 28.5858 23.4142 26.2426 25.7574Z" fill="currentColor"/>
</svg>
