<svg width="128" height="128" viewBox="0 0 128 128" fill="none" xmlns="http://www.w3.org/2000/svg">
<path d="M91.8401 32.7273C91.1165 26.5859 88.182 21.8182 83.0366 18.4242C77.8911 15.0303 71.5799 13.3333 64.103 13.3333C58.636 13.3333 53.8523 14.2222 49.752 16C45.692 17.7778 42.5163 20.2222 40.2249 23.3333C37.9738 26.4444 36.8482 29.9798 36.8482 33.9394C36.8482 37.2525 37.6321 40.101 39.1999 42.4849C40.8078 44.8283 42.8579 46.7879 45.3503 48.3636C47.8426 49.899 50.4555 51.1717 53.189 52.1818C55.9225 53.1515 58.435 53.9394 60.7263 54.5455L73.2683 57.9394C76.4842 58.7879 80.0619 59.9596 84.0014 61.4546C87.981 62.9495 91.7798 64.9899 95.3977 67.5758C99.0558 70.1212 102.071 73.3939 104.442 77.3939C106.814 81.3939 108 86.303 108 92.1212C108 98.8283 106.251 104.889 102.754 110.303C99.297 115.717 94.2319 120.02 87.5589 123.212C80.9262 126.404 72.8663 128 63.3794 128C54.5357 128 46.8778 126.566 40.4058 123.697C33.974 120.828 28.909 116.828 25.2107 111.697C21.5526 106.566 19.4824 100.606 19 93.8182H34.4363C34.8383 98.5051 36.4061 102.384 39.1396 105.455C41.9133 108.485 45.4106 110.747 49.6314 112.242C53.8925 113.697 58.4752 114.424 63.3794 114.424C69.0876 114.424 74.213 113.495 78.7554 111.636C83.2979 109.737 86.8957 107.111 89.5488 103.758C92.2019 100.364 93.5285 96.4041 93.5285 91.8788C93.5285 87.7576 92.3828 84.404 90.0915 81.8182C87.8001 79.2323 84.7852 77.1313 81.0467 75.5152C77.3083 73.899 73.2683 72.4849 68.9268 71.2727L53.7317 66.9091C44.084 64.1212 36.4463 60.1414 30.8184 54.9697C25.1906 49.798 22.3767 43.0303 22.3767 34.6667C22.3767 27.7172 24.2459 21.6566 27.9844 16.4849C31.7631 11.2727 36.8281 7.23232 43.1795 4.36364C49.5711 1.45455 56.7064 0 64.5854 0C72.5447 0 79.6197 1.43434 85.8103 4.30303C92.0009 7.13131 96.9051 11.0101 100.523 15.9394C104.181 20.8687 106.111 26.4646 106.312 32.7273H91.8401Z" fill="currentColor"/>
</svg>
