<svg width="96" height="96" viewBox="0 0 96 96" fill="none" xmlns="http://www.w3.org/2000/svg">
<path d="M46.7032 41.7166L46.7033 41.7166L46.6977 41.7151C45.4438 41.3831 44.0611 40.9494 42.5483 40.4122C41.079 39.8681 39.6743 39.1831 38.3335 38.3565C37.0488 37.5424 36.0007 36.5376 35.1787 35.3406C34.425 34.1893 34.0271 32.7877 34.0271 31.0909C34.0271 29.0683 34.5964 27.2871 35.7322 25.7141C36.9006 24.127 38.5346 22.8558 40.6764 21.9165C42.8292 20.9823 45.3754 20.5 48.3388 20.5C52.3854 20.5 55.7292 21.418 58.4245 23.1981C60.1336 24.3268 61.3428 25.726 62.0904 27.3955C63.0019 29.4309 64.8941 31.4091 67.4783 31.4091H67.9212C70.651 31.4091 73.236 29.0527 72.4056 26.0661C71.8373 24.0219 70.9013 22.1228 69.6044 20.3726C67.4607 17.4489 64.5656 15.1655 60.9524 13.5123C57.3231 11.8288 53.2017 11 48.6098 11C44.0583 11 39.9063 11.8418 36.1706 13.544C32.4578 15.2233 29.4705 17.6023 27.2375 20.6863L27.2366 20.6874C25.0023 23.7822 23.897 27.4006 23.897 31.5C23.897 36.4546 25.5741 40.5387 28.9625 43.6563C32.268 46.6978 36.7103 48.9987 42.2343 50.597L42.2359 50.5974L50.7724 53.052L50.7796 53.054C53.1795 53.7249 55.4059 54.5057 57.4605 55.395C59.45 56.2562 61.0158 57.3585 62.1902 58.6855C63.2854 59.9231 63.8699 61.5581 63.8699 63.6818C63.8699 66.0155 63.1925 68.0226 61.8476 69.7461C60.4779 71.4787 58.6044 72.8595 56.1877 73.8716C53.7749 74.8594 51.0284 75.3636 47.9322 75.3636C45.2794 75.3636 42.8169 74.9703 40.5376 74.192C38.3115 73.4017 36.4932 72.2177 35.0571 70.6486C34.4229 69.9341 33.9128 69.1335 33.5259 68.2426C32.5501 65.9959 30.508 63.7727 27.6746 63.7727C24.6567 63.7727 21.8991 66.4292 22.8639 69.6519C23.4869 71.7326 24.4241 73.6533 25.6745 75.4096L25.6776 75.4138C27.8697 78.4592 30.8619 80.8153 34.618 82.4926L34.6201 82.4936C38.4114 84.1761 42.8579 85 47.9322 85C53.3699 85 58.0546 84.0846 61.9493 82.2082C65.8393 80.3449 68.838 77.8093 70.8948 74.5851C72.9671 71.3718 74 67.7739 74 63.8182C74 60.4108 73.3059 57.4632 71.8618 55.0245C70.4609 52.6589 68.6723 50.7112 66.497 49.1946C64.3988 47.6936 62.19 46.5051 59.8714 45.6328C57.6354 44.7833 55.593 44.1129 53.7461 43.6248C53.7452 43.6246 53.7442 43.6243 53.7432 43.6241L46.7032 41.7166Z" fill="currentColor" stroke="white" stroke-width="2"/>
</svg>
