<svg width="96" height="96" viewBox="0 0 96 96" fill="none" xmlns="http://www.w3.org/2000/svg">
<path fill-rule="evenodd" clip-rule="evenodd" d="M50.0104 15.9124C53.3241 15.9124 56.0104 18.5987 56.0104 21.9124L56.0104 77.0667C56.0104 80.3805 53.3241 83.0667 50.0104 83.0667C46.6967 83.0667 44.0104 80.3805 44.0104 77.0667L44.0104 21.9124C44.0104 18.5987 46.6967 15.9124 50.0104 15.9124Z" fill="currentColor"/>
<path fill-rule="evenodd" clip-rule="evenodd" d="M16.4125 49.5104C16.4125 52.8241 19.0988 55.5104 22.4125 55.5104L77.5668 55.5104C80.8805 55.5104 83.5668 52.8241 83.5668 49.5104C83.5668 46.1967 80.8805 43.5104 77.5668 43.5104L22.4125 43.5104C19.0988 43.5104 16.4125 46.1967 16.4125 49.5104Z" fill="currentColor"/>
</svg>
