<svg width="100" height="100" viewBox="0 0 100 100" fill="none" xmlns="http://www.w3.org/2000/svg">
<path fill-rule="evenodd" clip-rule="evenodd" d="M43.16 61.6162C52.9023 61.6162 60.8 53.7495 60.8 44.0455C60.8 34.3414 52.9023 26.4747 43.16 26.4747C33.4177 26.4747 25.52 34.3414 25.52 44.0455C25.52 53.7495 33.4177 61.6162 43.16 61.6162ZM43.16 73.0909C59.2646 73.0909 72.32 60.0868 72.32 44.0455C72.32 28.0041 59.2646 15 43.16 15C27.0554 15 14 28.0041 14 44.0455C14 60.0868 27.0554 73.0909 43.16 73.0909Z" fill="currentColor"/>
<path fill-rule="evenodd" clip-rule="evenodd" d="M76.1671 84.3196L53.8471 62.0872L61.9929 53.9734L84.3129 76.2057C86.5624 78.4463 86.5624 82.079 84.3129 84.3196C82.0635 86.5601 78.4165 86.5601 76.1671 84.3196Z" fill="currentColor"/>
</svg>
